<svg width="114" height="40" viewBox="0 0 114 40" fill="none" xmlns="http://www.w3.org/2000/svg">
<rect width="113.571" height="40" rx="4" fill="#E5ECF4"/>
<path fill-rule="evenodd" clip-rule="evenodd" d="M67.4865 30.7004C67.0389 30.8432 66.5341 30.9146 65.9722 30.9146C65.3151 30.9146 64.7365 30.8218 64.2365 30.6361C63.7365 30.4504 63.3199 30.1932 62.9865 29.8646C62.6532 29.5361 62.4008 29.1504 62.2294 28.7075C62.058 28.2646 61.9722 27.7813 61.9722 27.2575V26.8289H63.858V27.1718C63.858 27.7718 64.0318 28.2504 64.3794 28.6075C64.727 28.9646 65.2675 29.1432 66.0008 29.1432C66.5722 29.1432 66.996 29.0194 67.2722 28.7718C67.5484 28.5242 67.6865 28.2289 67.6865 27.8861C67.6865 27.7242 67.658 27.5694 67.6008 27.4218C67.5437 27.2742 67.4437 27.1408 67.3008 27.0218C67.158 26.9027 66.9627 26.7956 66.7151 26.7004C66.4675 26.6051 66.1532 26.5242 65.7722 26.4575C65.2675 26.3718 64.8056 26.2599 64.3865 26.1218C63.9675 25.9837 63.6032 25.8004 63.2937 25.5718C62.9841 25.3432 62.7437 25.0575 62.5722 24.7146C62.4008 24.3718 62.3151 23.9527 62.3151 23.4575V23.3718C62.3151 22.9623 62.3984 22.5837 62.5651 22.2361C62.7318 21.8885 62.9651 21.5861 63.2651 21.3289C63.5651 21.0718 63.927 20.8718 64.3508 20.7289C64.7746 20.5861 65.2484 20.5146 65.7722 20.5146C66.3627 20.5146 66.8865 20.598 67.3437 20.7646C67.8008 20.9313 68.1841 21.1575 68.4937 21.4432C68.8032 21.7289 69.0365 22.0575 69.1937 22.4289C69.3508 22.8004 69.4294 23.1908 69.4294 23.6004V24.1146H67.5437V23.7718C67.5437 23.3718 67.3889 23.0242 67.0794 22.7289C66.7699 22.4337 66.3341 22.2861 65.7722 22.2861C65.296 22.2861 64.9199 22.3837 64.6437 22.5789C64.3675 22.7742 64.2294 23.0385 64.2294 23.3718C64.2294 23.5432 64.2627 23.698 64.3294 23.8361C64.396 23.9742 64.5127 24.098 64.6794 24.2075C64.8461 24.317 65.0651 24.4146 65.3365 24.5004C65.608 24.5861 65.9532 24.667 66.3722 24.7432C67.4199 24.9337 68.2199 25.2527 68.7722 25.7004C69.3246 26.148 69.6008 26.8099 69.6008 27.6861V27.8575C69.6008 28.3242 69.5175 28.7456 69.3508 29.1218C69.1841 29.498 68.9437 29.8194 68.6294 30.0861C68.3151 30.3527 67.9341 30.5575 67.4865 30.7004ZM39.3284 30.7146L39.8141 28.5718H43.2141L43.6998 30.7146H45.6712L43.2855 20.7146H39.7426L37.3569 30.7146H39.3284ZM42.7998 26.7718H40.2141L41.3855 21.6575H41.6426L42.7998 26.7718ZM47.7906 29.6861V33.5718H45.9906V23.6289H47.7906V24.6575H48.0478C48.2382 24.267 48.5144 23.9646 48.8763 23.7504C49.2382 23.5361 49.7001 23.4289 50.262 23.4289C50.6811 23.4289 51.0787 23.5099 51.4549 23.6718C51.8311 23.8337 52.1597 24.0694 52.4406 24.3789C52.7216 24.6885 52.9454 25.067 53.112 25.5146C53.2787 25.9623 53.362 26.4718 53.362 27.0432V27.3004C53.362 27.8813 53.2811 28.3956 53.1192 28.8432C52.9573 29.2908 52.7382 29.6694 52.462 29.9789C52.1858 30.2885 51.8597 30.5218 51.4835 30.6789C51.1073 30.8361 50.7001 30.9146 50.262 30.9146C49.9382 30.9146 49.6573 30.8813 49.4192 30.8146C49.1811 30.748 48.9739 30.6575 48.7978 30.5432C48.6216 30.4289 48.4739 30.298 48.3549 30.1504C48.2358 30.0027 48.1335 29.848 48.0478 29.6861H47.7906ZM49.6763 29.2004C49.1144 29.2004 48.6597 29.0218 48.312 28.6646C47.9644 28.3075 47.7906 27.8385 47.7906 27.2575V27.0861C47.7906 26.5051 47.9644 26.0361 48.312 25.6789C48.6597 25.3218 49.1144 25.1432 49.6763 25.1432C50.2382 25.1432 50.693 25.317 51.0406 25.6646C51.3882 26.0123 51.562 26.4861 51.562 27.0861V27.2575C51.562 27.8575 51.3882 28.3313 51.0406 28.6789C50.693 29.0266 50.2382 29.2004 49.6763 29.2004ZM55.8957 29.6861V33.5718H54.0957V23.6289H55.8957V24.6575H56.1529C56.3433 24.267 56.6195 23.9646 56.9814 23.7504C57.3433 23.5361 57.8052 23.4289 58.3671 23.4289C58.7862 23.4289 59.1838 23.5099 59.56 23.6718C59.9362 23.8337 60.2648 24.0694 60.5457 24.3789C60.8267 24.6885 61.0505 25.067 61.2171 25.5146C61.3838 25.9623 61.4671 26.4718 61.4671 27.0432V27.3004C61.4671 27.8813 61.3862 28.3956 61.2243 28.8432C61.0624 29.2908 60.8433 29.6694 60.5671 29.9789C60.2909 30.2885 59.9648 30.5218 59.5886 30.6789C59.2124 30.8361 58.8052 30.9146 58.3671 30.9146C58.0433 30.9146 57.7624 30.8813 57.5243 30.8146C57.2862 30.748 57.079 30.6575 56.9029 30.5432C56.7267 30.4289 56.579 30.298 56.46 30.1504C56.3409 30.0027 56.2386 29.848 56.1529 29.6861H55.8957ZM57.7814 29.2004C57.2195 29.2004 56.7648 29.0218 56.4171 28.6646C56.0695 28.3075 55.8957 27.8385 55.8957 27.2575V27.0861C55.8957 26.5051 56.0695 26.0361 56.4171 25.6789C56.7648 25.3218 57.2195 25.1432 57.7814 25.1432C58.3433 25.1432 58.7981 25.317 59.1457 25.6646C59.4933 26.0123 59.6671 26.4861 59.6671 27.0861V27.2575C59.6671 27.8575 59.4933 28.3313 59.1457 28.6789C58.7981 29.0266 58.3433 29.2004 57.7814 29.2004ZM76.6773 30.7146V29.0004H74.7631C74.5059 29.0004 74.3773 28.8575 74.3773 28.5718V25.3432H76.9345V23.6289H74.3773V20.7146H72.5773V23.6289H70.4773V25.3432H72.5773V29.6004C72.5773 29.9242 72.6797 30.1908 72.8845 30.4004C73.0892 30.6099 73.3535 30.7146 73.6773 30.7146H76.6773ZM83.4324 30.6718C82.9896 30.8337 82.5253 30.9146 82.0396 30.9146C81.5539 30.9146 81.0896 30.8337 80.6467 30.6718C80.2039 30.5099 79.811 30.2742 79.4682 29.9646C79.1253 29.6551 78.8539 29.2742 78.6539 28.8218C78.4539 28.3694 78.3539 27.848 78.3539 27.2575V27.0861C78.3539 26.5051 78.4539 25.9885 78.6539 25.5361C78.8539 25.0837 79.1253 24.7004 79.4682 24.3861C79.811 24.0718 80.2039 23.8337 80.6467 23.6718C81.0896 23.5099 81.5539 23.4289 82.0396 23.4289C82.5253 23.4289 82.9896 23.5099 83.4324 23.6718C83.8753 23.8337 84.2682 24.0718 84.611 24.3861C84.9539 24.7004 85.2253 25.0837 85.4253 25.5361C85.6253 25.9885 85.7253 26.5051 85.7253 27.0861V27.2575C85.7253 27.848 85.6253 28.3694 85.4253 28.8218C85.2253 29.2742 84.9539 29.6551 84.611 29.9646C84.2682 30.2742 83.8753 30.5099 83.4324 30.6718ZM82.0396 29.2004C81.7824 29.2004 81.5396 29.1575 81.311 29.0718C81.0824 28.9861 80.8824 28.8623 80.711 28.7004C80.5396 28.5385 80.4039 28.3408 80.3039 28.1075C80.2039 27.8742 80.1539 27.6099 80.1539 27.3146V27.0289C80.1539 26.7337 80.2039 26.4694 80.3039 26.2361C80.4039 26.0027 80.5396 25.8051 80.711 25.6432C80.8824 25.4813 81.0824 25.3575 81.311 25.2718C81.5396 25.1861 81.7824 25.1432 82.0396 25.1432C82.2967 25.1432 82.5396 25.1861 82.7682 25.2718C82.9967 25.3575 83.1967 25.4813 83.3682 25.6432C83.5396 25.8051 83.6753 26.0027 83.7753 26.2361C83.8753 26.4694 83.9253 26.7337 83.9253 27.0289V27.3146C83.9253 27.6099 83.8753 27.8742 83.7753 28.1075C83.6753 28.3408 83.5396 28.5385 83.3682 28.7004C83.1967 28.8623 82.9967 28.9861 82.7682 29.0718C82.5396 29.1575 82.2967 29.2004 82.0396 29.2004ZM91.259 29.0004V30.7146H86.3733V29.0004H87.8304V25.3432H86.5447V23.6289H89.5447V24.6575H89.8018C89.9352 24.267 90.1614 23.9646 90.4804 23.7504C90.7994 23.5361 91.1828 23.4289 91.6304 23.4289C92.3352 23.4289 92.9018 23.6504 93.3304 24.0932C93.759 24.5361 93.9733 25.2099 93.9733 26.1146V26.4289L92.1161 26.6004V26.4004C92.1161 26.0099 92.0161 25.698 91.8161 25.4646C91.6161 25.2313 91.3161 25.1146 90.9161 25.1146C90.5161 25.1146 90.2018 25.2527 89.9733 25.5289C89.7447 25.8051 89.6304 26.2004 89.6304 26.7146V29.0004H91.259ZM98.3212 30.9146C98.7879 30.9146 99.195 30.8623 99.5426 30.7575C99.8903 30.6527 100.186 30.5194 100.428 30.3575C100.671 30.1956 100.869 30.017 101.021 29.8218C101.174 29.6266 101.293 29.4385 101.378 29.2575L99.8355 28.4004C99.7307 28.6194 99.5593 28.8075 99.3212 28.9646C99.0831 29.1218 98.7403 29.2004 98.2926 29.2004C98.0641 29.2004 97.8474 29.1646 97.6426 29.0932C97.4379 29.0218 97.2569 28.9218 97.0998 28.7932C96.9426 28.6646 96.8188 28.5123 96.7284 28.3361C96.6379 28.1599 96.5879 27.967 96.5784 27.7575H101.778V26.8004C101.778 26.4289 101.712 26.0456 101.578 25.6504C101.445 25.2551 101.236 24.8932 100.95 24.5646C100.664 24.2361 100.302 23.9646 99.8641 23.7504C99.426 23.5361 98.9022 23.4289 98.2926 23.4289C97.7974 23.4289 97.3331 23.517 96.8998 23.6932C96.4665 23.8694 96.0879 24.1146 95.7641 24.4289C95.4403 24.7432 95.1855 25.1242 94.9998 25.5718C94.8141 26.0194 94.7212 26.5146 94.7212 27.0575V27.1432C94.7212 27.7337 94.8093 28.2623 94.9855 28.7289C95.1617 29.1956 95.4093 29.5908 95.7284 29.9146C96.0474 30.2385 96.426 30.4861 96.8641 30.6575C97.3022 30.8289 97.7879 30.9146 98.3212 30.9146ZM96.6069 26.2146H99.9498C99.8926 25.8813 99.7141 25.6051 99.4141 25.3861C99.1141 25.167 98.7355 25.0575 98.2784 25.0575C97.8212 25.0575 97.4498 25.1742 97.1641 25.4075C96.8784 25.6408 96.6926 25.9099 96.6069 26.2146Z" fill="#495567"/>
<path fill-rule="evenodd" clip-rule="evenodd" d="M51.8255 9.60386C51.7422 9.63958 51.6553 9.65744 51.5648 9.65744C51.4696 9.65744 51.3815 9.63958 51.3005 9.60386C51.2196 9.56815 51.1481 9.52053 51.0862 9.46101C51.0243 9.40148 50.9755 9.33005 50.9398 9.24672C50.9041 9.16339 50.8862 9.0741 50.8862 8.97886C50.8862 8.88363 50.9041 8.79434 50.9398 8.71101C50.9755 8.62767 51.0243 8.55625 51.0862 8.49672C51.1481 8.4372 51.2196 8.38958 51.3005 8.35386C51.3815 8.31815 51.4696 8.30029 51.5648 8.30029C51.6553 8.30029 51.7422 8.31815 51.8255 8.35386C51.9088 8.38958 51.9815 8.4372 52.0434 8.49672C52.1053 8.55625 52.1541 8.62767 52.1898 8.71101C52.2255 8.79434 52.2434 8.88363 52.2434 8.97886C52.2434 9.0741 52.2255 9.16339 52.1898 9.24672C52.1541 9.33005 52.1053 9.40148 52.0434 9.46101C51.9815 9.52053 51.9088 9.56815 51.8255 9.60386ZM38.4786 12.5003L38.2357 13.5717H37.25L38.4429 8.57172H40.2143L41.4071 13.5717H40.4214L40.1786 12.5003H38.4786ZM38.6786 11.6003H39.9714L39.3929 9.04315H39.2643L38.6786 11.6003ZM44.2311 13.5717L45.2454 10.0289H44.274L43.4383 13.1432H43.3097L42.474 10.0289H41.5026L42.5168 13.5717H44.2311ZM47.698 13.5324C47.5265 13.6253 47.3265 13.6717 47.098 13.6717C46.8837 13.6717 46.6825 13.6312 46.4944 13.5503C46.3063 13.4693 46.1408 13.3503 45.998 13.1932C45.8551 13.036 45.742 12.8455 45.6587 12.6217C45.5753 12.3979 45.5337 12.1432 45.5337 11.8574V11.7432C45.5337 11.4622 45.5741 11.2098 45.6551 10.986C45.7361 10.7622 45.8456 10.5717 45.9837 10.4146C46.1218 10.2574 46.2825 10.1372 46.4658 10.0539C46.6491 9.97053 46.8456 9.92886 47.0551 9.92886C47.3075 9.92886 47.5111 9.97172 47.6658 10.0574C47.8206 10.1432 47.9432 10.2765 48.0337 10.4574H48.1622V10.0289H49.0622V12.5003C49.0622 12.6431 49.1265 12.7146 49.2551 12.7146H49.3908V13.5717H48.7765C48.6146 13.5717 48.4825 13.5241 48.3801 13.4289C48.2777 13.3336 48.2265 13.2098 48.2265 13.0574H48.098C48.0027 13.2812 47.8694 13.4396 47.698 13.5324ZM47.298 12.8146C47.0361 12.8146 46.8265 12.7277 46.6694 12.5539C46.5122 12.3801 46.4337 12.1432 46.4337 11.8432V11.7574C46.4337 11.4574 46.5122 11.2205 46.6694 11.0467C46.8265 10.8729 47.0361 10.786 47.298 10.786C47.5599 10.786 47.7694 10.8729 47.9265 11.0467C48.0837 11.2205 48.1622 11.4574 48.1622 11.7574V11.8432C48.1622 12.1432 48.0837 12.3801 47.9265 12.5539C47.7694 12.7277 47.5599 12.8146 47.298 12.8146ZM53.0505 12.7146H52.0219V10.0289H50.0077V10.886H51.1219V12.7146H49.9219V13.5717H53.0505V12.7146ZM56.0316 12.7146H57.1888V13.5717H53.8888V12.7146H55.1316V9.42886H53.9316V8.57172H56.0316V12.7146ZM59.2556 13.6717C59.4842 13.6717 59.6842 13.6253 59.8556 13.5324C60.027 13.4396 60.1604 13.2812 60.2556 13.0574H60.3842C60.3842 13.2098 60.4354 13.3336 60.5378 13.4289C60.6401 13.5241 60.7723 13.5717 60.9342 13.5717H61.5485V12.7146H61.4128C61.2842 12.7146 61.2199 12.6431 61.2199 12.5003V10.0289H60.3199V10.4574H60.1913C60.1008 10.2765 59.9782 10.1432 59.8235 10.0574C59.6687 9.97172 59.4651 9.92886 59.2128 9.92886C59.0032 9.92886 58.8068 9.97053 58.6235 10.0539C58.4401 10.1372 58.2794 10.2574 58.1413 10.4146C58.0032 10.5717 57.8937 10.7622 57.8128 10.986C57.7318 11.2098 57.6913 11.4622 57.6913 11.7432V11.8574C57.6913 12.1432 57.733 12.3979 57.8163 12.6217C57.8997 12.8455 58.0128 13.036 58.1556 13.1932C58.2985 13.3503 58.4639 13.4693 58.652 13.5503C58.8401 13.6312 59.0413 13.6717 59.2556 13.6717ZM58.827 12.5539C58.9842 12.7277 59.1937 12.8146 59.4556 12.8146C59.7175 12.8146 59.927 12.7277 60.0842 12.5539C60.2413 12.3801 60.3199 12.1432 60.3199 11.8432V11.7574C60.3199 11.4574 60.2413 11.2205 60.0842 11.0467C59.927 10.8729 59.7175 10.786 59.4556 10.786C59.1937 10.786 58.9842 10.8729 58.827 11.0467C58.6699 11.2205 58.5913 11.4574 58.5913 11.7574V11.8432C58.5913 12.1432 58.6699 12.3801 58.827 12.5539ZM64.001 13.6717C64.2201 13.6717 64.4236 13.6324 64.6117 13.5539C64.7998 13.4753 64.9629 13.3586 65.101 13.2039C65.2391 13.0491 65.3486 12.8598 65.4296 12.636C65.5105 12.4122 65.551 12.1551 65.551 11.8646V11.736C65.551 11.4503 65.5094 11.1955 65.426 10.9717C65.3427 10.7479 65.2308 10.5586 65.0903 10.4039C64.9498 10.2491 64.7855 10.1312 64.5975 10.0503C64.4094 9.96934 64.2105 9.92886 64.001 9.92886C63.7201 9.92886 63.4891 9.98244 63.3082 10.0896C63.1272 10.1967 62.9891 10.3479 62.8939 10.5431H62.7653V8.57172H61.8653V13.5717H62.7653V13.0574H62.8939C62.9367 13.1384 62.9879 13.2158 63.0474 13.2896C63.107 13.3634 63.1808 13.4289 63.2689 13.486C63.357 13.5431 63.4605 13.5884 63.5796 13.6217C63.6986 13.6551 63.8391 13.6717 64.001 13.6717ZM63.026 12.5467C63.1998 12.7253 63.4272 12.8146 63.7082 12.8146C63.9891 12.8146 64.2165 12.7277 64.3903 12.5539C64.5641 12.3801 64.651 12.1432 64.651 11.8432V11.7574C64.651 11.4574 64.5641 11.2205 64.3903 11.0467C64.2165 10.8729 63.9891 10.786 63.7082 10.786C63.4272 10.786 63.1998 10.8753 63.026 11.0539C62.8522 11.2324 62.7653 11.467 62.7653 11.7574V11.8432C62.7653 12.1336 62.8522 12.3682 63.026 12.5467ZM69.3464 12.7146H68.1893V8.57172H66.0893V9.42886H67.2893V12.7146H66.0464V13.5717H69.3464V12.7146ZM72.3954 13.5932C72.2216 13.6455 72.018 13.6717 71.7847 13.6717C71.518 13.6717 71.2752 13.6289 71.0561 13.5431C70.8371 13.4574 70.6478 13.3336 70.4883 13.1717C70.3287 13.0098 70.2049 12.8122 70.1168 12.5789C70.0287 12.3455 69.9847 12.0812 69.9847 11.786V11.7432C69.9847 11.4717 70.0311 11.2241 70.124 11.0003C70.2168 10.7765 70.3442 10.586 70.5061 10.4289C70.668 10.2717 70.8573 10.1491 71.074 10.061C71.2906 9.97291 71.5228 9.92886 71.7704 9.92886C72.0752 9.92886 72.3371 9.98244 72.5561 10.0896C72.7752 10.1967 72.9561 10.3324 73.099 10.4967C73.2418 10.661 73.3466 10.842 73.4133 11.0396C73.4799 11.2372 73.5133 11.4289 73.5133 11.6146V12.0932H70.9133C70.918 12.1979 70.943 12.2943 70.9883 12.3824C71.0335 12.4705 71.0954 12.5467 71.174 12.611C71.2526 12.6753 71.343 12.7253 71.4454 12.761C71.5478 12.7967 71.6561 12.8146 71.7704 12.8146C71.9942 12.8146 72.1656 12.7753 72.2847 12.6967C72.4037 12.6182 72.4895 12.5241 72.5418 12.4146L73.3133 12.8432C73.2704 12.9336 73.2109 13.0277 73.1347 13.1253C73.0585 13.2229 72.9597 13.3122 72.8383 13.3931C72.7168 13.4741 72.5692 13.5408 72.3954 13.5932ZM72.599 11.3217H70.9276C70.9704 11.1693 71.0633 11.0348 71.2061 10.9182C71.349 10.8015 71.5347 10.7432 71.7633 10.7432C71.9918 10.7432 72.1811 10.7979 72.3311 10.9074C72.4811 11.017 72.5704 11.1551 72.599 11.3217ZM80.5505 13.5503C80.3291 13.6312 80.0969 13.6717 79.8541 13.6717C79.6112 13.6717 79.3791 13.6312 79.1576 13.5503C78.9362 13.4693 78.7398 13.3515 78.5684 13.1967C78.3969 13.042 78.2612 12.8515 78.1612 12.6253C78.0612 12.3991 78.0112 12.1384 78.0112 11.8432V11.7574C78.0112 11.467 78.0612 11.2086 78.1612 10.9824C78.2612 10.7562 78.3969 10.5646 78.5684 10.4074C78.7398 10.2503 78.9362 10.1312 79.1576 10.0503C79.3791 9.96934 79.6112 9.92886 79.8541 9.92886C80.0969 9.92886 80.3291 9.96934 80.5505 10.0503C80.7719 10.1312 80.9684 10.2503 81.1398 10.4074C81.3112 10.5646 81.4469 10.7562 81.5469 10.9824C81.6469 11.2086 81.6969 11.467 81.6969 11.7574V11.8432C81.6969 12.1384 81.6469 12.3991 81.5469 12.6253C81.4469 12.8515 81.3112 13.042 81.1398 13.1967C80.9684 13.3515 80.7719 13.4693 80.5505 13.5503ZM79.8541 12.8146C79.7255 12.8146 79.6041 12.7931 79.4898 12.7503C79.3755 12.7074 79.2755 12.6455 79.1898 12.5646C79.1041 12.4836 79.0362 12.3848 78.9862 12.2681C78.9362 12.1515 78.9112 12.0193 78.9112 11.8717V11.7289C78.9112 11.5812 78.9362 11.4491 78.9862 11.3324C79.0362 11.2158 79.1041 11.117 79.1898 11.036C79.2755 10.9551 79.3755 10.8932 79.4898 10.8503C79.6041 10.8074 79.7255 10.786 79.8541 10.786C79.9827 10.786 80.1041 10.8074 80.2184 10.8503C80.3327 10.8932 80.4327 10.9551 80.5184 11.036C80.6041 11.117 80.6719 11.2158 80.7219 11.3324C80.7719 11.4491 80.7969 11.5812 80.7969 11.7289V11.8717C80.7969 12.0193 80.7719 12.1515 80.7219 12.2681C80.6719 12.3848 80.6041 12.4836 80.5184 12.5646C80.4327 12.6455 80.3327 12.7074 80.2184 12.7503C80.1041 12.7931 79.9827 12.8146 79.8541 12.8146ZM83.1781 11.7289V13.5717H82.2781V10.0289H83.1781V10.5574H83.3066C83.3876 10.3574 83.5185 10.2027 83.6995 10.0932C83.8804 9.98363 84.0923 9.92886 84.3352 9.92886C84.5066 9.92886 84.6673 9.95625 84.8173 10.011C84.9673 10.0658 85.0995 10.1503 85.2138 10.2646C85.3281 10.3789 85.4173 10.5241 85.4816 10.7003C85.5459 10.8765 85.5781 11.086 85.5781 11.3289V13.5717H84.6781V11.5574C84.6781 11.3051 84.6173 11.1062 84.4959 10.961C84.3745 10.8158 84.1995 10.7431 83.9709 10.7431C83.7043 10.7431 83.5054 10.8324 83.3745 11.011C83.2435 11.1896 83.1781 11.4289 83.1781 11.7289ZM93.3832 12.7146H92.426C92.2975 12.7146 92.2332 12.6432 92.2332 12.5003V10.886H93.5117V10.0289H92.2332V8.57172H91.3332V10.0289H90.2832V10.886H91.3332V13.0146C91.3332 13.1765 91.3844 13.3098 91.4867 13.4146C91.5891 13.5193 91.7213 13.5717 91.8832 13.5717H93.3832V12.7146ZM95.35 11.7289V13.5717H94.45V8.57172H95.35V10.6003H95.4786C95.569 10.386 95.7024 10.2205 95.8786 10.1039C96.0548 9.9872 96.2714 9.92886 96.5286 9.92886C96.7048 9.92886 96.8667 9.95744 97.0143 10.0146C97.1619 10.0717 97.2905 10.1574 97.4 10.2717C97.5095 10.386 97.5952 10.5324 97.6571 10.711C97.719 10.8896 97.75 11.1003 97.75 11.3432V13.5717H96.85V11.5574C96.85 11.3051 96.7893 11.1062 96.6679 10.961C96.5464 10.8158 96.3714 10.7432 96.1429 10.7432C95.8762 10.7432 95.6774 10.8324 95.5464 11.011C95.4155 11.1896 95.35 11.4289 95.35 11.7289ZM100.153 13.6717C100.386 13.6717 100.589 13.6455 100.763 13.5932C100.937 13.5408 101.085 13.4741 101.206 13.3931C101.328 13.3122 101.426 13.2229 101.503 13.1253C101.579 13.0277 101.638 12.9336 101.681 12.8432L100.91 12.4146C100.857 12.5241 100.772 12.6182 100.653 12.6967C100.534 12.7753 100.362 12.8146 100.138 12.8146C100.024 12.8146 99.9156 12.7967 99.8133 12.761C99.7109 12.7253 99.6204 12.6753 99.5418 12.611C99.4633 12.5467 99.4014 12.4705 99.3561 12.3824C99.3109 12.2943 99.2859 12.1979 99.2811 12.0932H101.881V11.6146C101.881 11.4289 101.848 11.2372 101.781 11.0396C101.714 10.842 101.61 10.661 101.467 10.4967C101.324 10.3324 101.143 10.1967 100.924 10.0896C100.705 9.98244 100.443 9.92886 100.138 9.92886C99.8906 9.92886 99.6585 9.97291 99.4418 10.061C99.2252 10.1491 99.0359 10.2717 98.874 10.4289C98.7121 10.586 98.5847 10.7765 98.4918 11.0003C98.399 11.2241 98.3526 11.4717 98.3526 11.7432V11.786C98.3526 12.0812 98.3966 12.3455 98.4847 12.5789C98.5728 12.8122 98.6966 13.0098 98.8561 13.1717C99.0156 13.3336 99.2049 13.4574 99.424 13.5431C99.643 13.6289 99.8859 13.6717 100.153 13.6717ZM99.2954 11.3217H100.967C100.938 11.1551 100.849 11.017 100.699 10.9074C100.549 10.7979 100.36 10.7432 100.131 10.7432C99.9025 10.7432 99.7168 10.8015 99.574 10.9182C99.4311 11.0348 99.3383 11.1693 99.2954 11.3217Z" fill="#495567"/>
<path fill-rule="evenodd" clip-rule="evenodd" d="M21.1073 11.5947C21.8129 10.7331 23.0236 10.0715 24.0595 10C24.2331 11.1779 23.7535 12.3315 23.1196 13.147C22.4419 14.0231 21.2725 14.7005 20.1407 14.6654C19.9343 13.5372 20.4637 12.3763 21.1073 11.5947ZM24.2976 14.6667C25.6763 14.6667 27.1361 15.4124 28.1748 16.6973C24.7694 18.5503 25.3212 23.3774 28.762 24.6698C28.289 25.7108 28.0619 26.175 27.4519 27.0971C26.6009 28.3833 25.4023 29.9861 23.9146 29.9974C23.3031 30.0037 22.9019 29.8211 22.4693 29.6243C21.9679 29.3961 21.4243 29.1487 20.4623 29.1541C19.5056 29.1587 18.9533 29.4031 18.4451 29.6279C18.0013 29.8242 17.5911 30.0057 16.9745 29.9999C15.4881 29.9874 14.3517 28.541 13.5006 27.2548C11.1226 23.6601 10.8715 19.4399 12.3389 17.1953C13.3827 15.6013 15.0289 14.6692 16.575 14.6692C17.399 14.6692 18.0631 14.9041 18.6959 15.1279C19.2719 15.3316 19.822 15.5262 20.4433 15.5262C21.0181 15.5262 21.4908 15.3486 22.0063 15.1548C22.6248 14.9223 23.305 14.6667 24.2976 14.6667Z" fill="#495567"/>
</svg>
