<svg width="131" height="40" viewBox="0 0 131 40" fill="none" xmlns="http://www.w3.org/2000/svg">
<rect x="0.428711" width="130" height="40" rx="4" fill="#E5ECF4"/>
<path fill-rule="evenodd" clip-rule="evenodd" d="M42.9435 30.5361C42.6197 30.7885 42.134 30.9146 41.4864 30.9146C41.0293 30.9146 40.6007 30.8289 40.2007 30.6575C39.8007 30.4861 39.4531 30.2313 39.1578 29.8932C38.8626 29.5551 38.6293 29.1361 38.4578 28.6361C38.2864 28.1361 38.2007 27.5527 38.2007 26.8861V24.5432C38.2007 23.8956 38.2935 23.3218 38.4793 22.8218C38.665 22.3218 38.9221 21.9004 39.2507 21.5575C39.5793 21.2146 39.9721 20.9551 40.4293 20.7789C40.8864 20.6027 41.3912 20.5146 41.9435 20.5146C42.515 20.5146 43.0245 20.6075 43.4721 20.7932C43.9197 20.9789 44.3007 21.2361 44.615 21.5646C44.9293 21.8932 45.1674 22.2789 45.3293 22.7218C45.4912 23.1646 45.5721 23.6385 45.5721 24.1432V24.3146H43.6864V24.1432C43.6864 23.5432 43.5316 23.0885 43.2221 22.7789C42.9126 22.4694 42.4769 22.3146 41.915 22.3146C41.3816 22.3146 40.9435 22.4932 40.6007 22.8504C40.2578 23.2075 40.0864 23.8194 40.0864 24.6861V26.8004C40.0864 28.3432 40.715 29.1146 41.9721 29.1146C42.534 29.1146 42.9602 28.9646 43.2507 28.6646C43.5412 28.3646 43.6864 27.9623 43.6864 27.4575H41.2864V25.6575H45.5721V30.7146H43.8578V29.6004H43.6007C43.4864 29.9718 43.2674 30.2837 42.9435 30.5361ZM51.4415 30.6718C50.9986 30.8337 50.5344 30.9146 50.0486 30.9146C49.5629 30.9146 49.0986 30.8337 48.6558 30.6718C48.2129 30.5099 47.8201 30.2742 47.4772 29.9646C47.1344 29.6551 46.8629 29.2742 46.6629 28.8218C46.4629 28.3694 46.3629 27.848 46.3629 27.2575V27.0861C46.3629 26.5051 46.4629 25.9885 46.6629 25.5361C46.8629 25.0837 47.1344 24.7004 47.4772 24.3861C47.8201 24.0718 48.2129 23.8337 48.6558 23.6718C49.0986 23.5099 49.5629 23.4289 50.0486 23.4289C50.5344 23.4289 50.9986 23.5099 51.4415 23.6718C51.8844 23.8337 52.2772 24.0718 52.6201 24.3861C52.9629 24.7004 53.2344 25.0837 53.4344 25.5361C53.6344 25.9885 53.7344 26.5051 53.7344 27.0861V27.2575C53.7344 27.848 53.6344 28.3694 53.4344 28.8218C53.2344 29.2742 52.9629 29.6551 52.6201 29.9646C52.2772 30.2742 51.8844 30.5099 51.4415 30.6718ZM50.0486 29.2004C49.7915 29.2004 49.5486 29.1575 49.3201 29.0718C49.0915 28.9861 48.8915 28.8623 48.7201 28.7004C48.5486 28.5385 48.4129 28.3408 48.3129 28.1075C48.2129 27.8742 48.1629 27.6099 48.1629 27.3146V27.0289C48.1629 26.7337 48.2129 26.4694 48.3129 26.2361C48.4129 26.0027 48.5486 25.8051 48.7201 25.6432C48.8915 25.4813 49.0915 25.3575 49.3201 25.2718C49.5486 25.1861 49.7915 25.1432 50.0486 25.1432C50.3058 25.1432 50.5486 25.1861 50.7772 25.2718C51.0058 25.3575 51.2058 25.4813 51.3772 25.6432C51.5486 25.8051 51.6844 26.0027 51.7844 26.2361C51.8844 26.4694 51.9344 26.7337 51.9344 27.0289V27.3146C51.9344 27.6099 51.8844 27.8742 51.7844 28.1075C51.6844 28.3408 51.5486 28.5385 51.3772 28.7004C51.2058 28.8623 51.0058 28.9861 50.7772 29.0718C50.5486 29.1575 50.3058 29.2004 50.0486 29.2004ZM59.5466 30.6718C59.1037 30.8337 58.6395 30.9146 58.1537 30.9146C57.668 30.9146 57.2037 30.8337 56.7609 30.6718C56.318 30.5099 55.9252 30.2742 55.5823 29.9646C55.2395 29.6551 54.968 29.2742 54.768 28.8218C54.568 28.3694 54.468 27.848 54.468 27.2575V27.0861C54.468 26.5051 54.568 25.9885 54.768 25.5361C54.968 25.0837 55.2395 24.7004 55.5823 24.3861C55.9252 24.0718 56.318 23.8337 56.7609 23.6718C57.2037 23.5099 57.668 23.4289 58.1537 23.4289C58.6395 23.4289 59.1037 23.5099 59.5466 23.6718C59.9895 23.8337 60.3823 24.0718 60.7252 24.3861C61.068 24.7004 61.3395 25.0837 61.5395 25.5361C61.7395 25.9885 61.8395 26.5051 61.8395 27.0861V27.2575C61.8395 27.848 61.7395 28.3694 61.5395 28.8218C61.3395 29.2742 61.068 29.6551 60.7252 29.9646C60.3823 30.2742 59.9895 30.5099 59.5466 30.6718ZM58.1537 29.2004C57.8966 29.2004 57.6537 29.1575 57.4252 29.0718C57.1966 28.9861 56.9966 28.8623 56.8252 28.7004C56.6537 28.5385 56.518 28.3408 56.418 28.1075C56.318 27.8742 56.268 27.6099 56.268 27.3146V27.0289C56.268 26.7337 56.318 26.4694 56.418 26.2361C56.518 26.0027 56.6537 25.8051 56.8252 25.6432C56.9966 25.4813 57.1966 25.3575 57.4252 25.2718C57.6537 25.1861 57.8966 25.1432 58.1537 25.1432C58.4109 25.1432 58.6537 25.1861 58.8823 25.2718C59.1109 25.3575 59.3109 25.4813 59.4823 25.6432C59.6537 25.8051 59.7895 26.0027 59.8895 26.2361C59.9895 26.4694 60.0395 26.7337 60.0395 27.0289V27.3146C60.0395 27.6099 59.9895 27.8742 59.8895 28.1075C59.7895 28.3408 59.6537 28.5385 59.4823 28.7004C59.3109 28.8623 59.1109 28.9861 58.8823 29.0718C58.6537 29.1575 58.4109 29.2004 58.1537 29.2004ZM69.5517 33.2575C69.3469 33.467 69.0827 33.5718 68.7588 33.5718H63.9874V31.8575H67.6731C67.9303 31.8575 68.0588 31.7146 68.0588 31.4289V29.6861H67.8017C67.7255 29.848 67.6327 30.0027 67.5231 30.1504C67.4136 30.298 67.2708 30.4289 67.0946 30.5432C66.9184 30.6575 66.7088 30.748 66.466 30.8146C66.2231 30.8813 65.9303 30.9146 65.5874 30.9146C65.1493 30.9146 64.7422 30.8361 64.366 30.6789C63.9898 30.5218 63.6612 30.2885 63.3803 29.9789C63.0993 29.6694 62.8803 29.2908 62.7231 28.8432C62.566 28.3956 62.4874 27.8813 62.4874 27.3004V27.0432C62.4874 26.4718 62.5708 25.9623 62.7374 25.5146C62.9041 25.067 63.1327 24.6885 63.4231 24.3789C63.7136 24.0694 64.0517 23.8337 64.4374 23.6718C64.8231 23.5099 65.2303 23.4289 65.6588 23.4289C66.2303 23.4289 66.6827 23.5361 67.016 23.7504C67.3493 23.9646 67.6112 24.267 67.8017 24.6575H68.0588V23.6289H69.8588V32.4575C69.8588 32.7813 69.7565 33.048 69.5517 33.2575ZM66.1731 29.2004C65.6112 29.2004 65.1565 29.0266 64.8088 28.6789C64.4612 28.3313 64.2874 27.8575 64.2874 27.2575V27.0861C64.2874 26.4861 64.4612 26.0123 64.8088 25.6646C65.1565 25.317 65.6112 25.1432 66.1731 25.1432C66.735 25.1432 67.1898 25.3218 67.5374 25.6789C67.885 26.0361 68.0588 26.5051 68.0588 27.0861V27.2575C68.0588 27.8385 67.885 28.3075 67.5374 28.6646C67.1898 29.0218 66.735 29.2004 66.1731 29.2004ZM77.6639 29.0004V30.7146H71.0639V29.0004H73.5497V22.4289H71.1497V20.7146H75.3497V29.0004H77.6639ZM82.5405 30.9146C83.0071 30.9146 83.4143 30.8623 83.7619 30.7575C84.1095 30.6527 84.4048 30.5194 84.6476 30.3575C84.8905 30.1956 85.0881 30.017 85.2405 29.8218C85.3929 29.6266 85.5119 29.4385 85.5976 29.2575L84.0548 28.4004C83.95 28.6194 83.7786 28.8075 83.5405 28.9646C83.3024 29.1218 82.9595 29.2004 82.5119 29.2004C82.2833 29.2004 82.0667 29.1646 81.8619 29.0932C81.6571 29.0218 81.4762 28.9218 81.319 28.7932C81.1619 28.6646 81.0381 28.5123 80.9476 28.3361C80.8571 28.1599 80.8071 27.967 80.7976 27.7575H85.9976V26.8004C85.9976 26.4289 85.931 26.0456 85.7976 25.6504C85.6643 25.2551 85.4548 24.8932 85.1691 24.5646C84.8833 24.2361 84.5214 23.9646 84.0833 23.7504C83.6452 23.5361 83.1214 23.4289 82.5119 23.4289C82.0167 23.4289 81.5524 23.517 81.119 23.6932C80.6857 23.8694 80.3071 24.1146 79.9833 24.4289C79.6595 24.7432 79.4048 25.1242 79.2191 25.5718C79.0333 26.0194 78.9405 26.5146 78.9405 27.0575V27.1432C78.9405 27.7337 79.0286 28.2623 79.2048 28.7289C79.381 29.1956 79.6286 29.5908 79.9476 29.9146C80.2667 30.2385 80.6452 30.4861 81.0833 30.6575C81.5214 30.8289 82.0071 30.9146 82.5405 30.9146ZM80.8262 26.2146H84.1691C84.1119 25.8813 83.9333 25.6051 83.6333 25.3861C83.3333 25.167 82.9548 25.0575 82.4976 25.0575C82.0405 25.0575 81.6691 25.1742 81.3833 25.4075C81.0976 25.6408 80.9119 25.9099 80.8262 26.2146ZM89.117 30.7146V26.9432H91.1456C91.6599 26.9432 92.1075 26.8575 92.4884 26.6861C92.8694 26.5146 93.1861 26.2885 93.4384 26.0075C93.6908 25.7266 93.8813 25.4075 94.0099 25.0504C94.1384 24.6932 94.2027 24.3289 94.2027 23.9575V23.6146C94.2027 23.2527 94.1384 22.898 94.0099 22.5504C93.8813 22.2027 93.6908 21.8932 93.4384 21.6218C93.1861 21.3504 92.8694 21.1313 92.4884 20.9646C92.1075 20.798 91.6599 20.7146 91.1456 20.7146H87.2313V30.7146H89.117ZM89.117 25.1432H90.9599C91.3789 25.1432 91.7099 25.0289 91.9527 24.8004C92.1956 24.5718 92.317 24.2766 92.317 23.9146V23.7432C92.317 23.3813 92.1956 23.0861 91.9527 22.8575C91.7099 22.6289 91.3789 22.5146 90.9599 22.5146H89.117V25.1432ZM101.979 30.7146V29.0004H99.665V20.7146H95.465V22.4289H97.865V29.0004H95.3793V30.7146H101.979ZM107.313 30.6361C106.97 30.8218 106.57 30.9146 106.113 30.9146C105.684 30.9146 105.282 30.8337 104.906 30.6718C104.53 30.5099 104.199 30.2718 103.913 29.9575C103.627 29.6432 103.401 29.2623 103.234 28.8146C103.068 28.367 102.984 27.8575 102.984 27.2861V27.0575C102.984 26.4956 103.065 25.9908 103.227 25.5432C103.389 25.0956 103.608 24.7146 103.884 24.4004C104.161 24.0861 104.482 23.8456 104.849 23.6789C105.215 23.5123 105.608 23.4289 106.027 23.4289C106.532 23.4289 106.939 23.5146 107.249 23.6861C107.558 23.8575 107.803 24.1242 107.984 24.4861H108.242V23.6289H110.042V28.5718C110.042 28.8575 110.17 29.0004 110.427 29.0004H110.699V30.7146H109.47C109.146 30.7146 108.882 30.6194 108.677 30.4289C108.472 30.2385 108.37 29.9908 108.37 29.6861H108.113C107.922 30.1337 107.656 30.4504 107.313 30.6361ZM106.513 29.2004C105.989 29.2004 105.57 29.0266 105.256 28.6789C104.941 28.3313 104.784 27.8575 104.784 27.2575V27.0861C104.784 26.4861 104.941 26.0123 105.256 25.6646C105.57 25.317 105.989 25.1432 106.513 25.1432C107.037 25.1432 107.456 25.317 107.77 25.6646C108.084 26.0123 108.242 26.4861 108.242 27.0861V27.2575C108.242 27.8575 108.084 28.3313 107.77 28.6789C107.456 29.0266 107.037 29.2004 106.513 29.2004ZM117.925 33.2575C117.72 33.467 117.456 33.5718 117.132 33.5718H112.918V31.8575H116.047C116.304 31.8575 116.432 31.7146 116.432 31.4289V29.6861H116.175C115.861 30.5051 115.185 30.9146 114.147 30.9146C113.794 30.9146 113.466 30.8575 113.161 30.7432C112.856 30.6289 112.589 30.4527 112.361 30.2146C112.132 29.9766 111.954 29.6789 111.825 29.3218C111.697 28.9646 111.632 28.5432 111.632 28.0575V23.6289H113.432V27.6861C113.432 28.1908 113.551 28.5837 113.789 28.8646C114.028 29.1456 114.385 29.2861 114.861 29.2861C115.404 29.2861 115.801 29.1123 116.054 28.7646C116.306 28.417 116.432 27.9432 116.432 27.3432V23.6289H118.232V32.4575C118.232 32.7813 118.13 33.048 117.925 33.2575Z" fill="#495567"/>
<path fill-rule="evenodd" clip-rule="evenodd" d="M56.0464 9.65744C56.1369 9.65744 56.2238 9.63958 56.3071 9.60386C56.3905 9.56815 56.4631 9.52053 56.525 9.46101C56.5869 9.40148 56.6357 9.33005 56.6714 9.24672C56.7071 9.16339 56.725 9.0741 56.725 8.97886C56.725 8.88363 56.7071 8.79434 56.6714 8.71101C56.6357 8.62767 56.5869 8.55625 56.525 8.49672C56.4631 8.4372 56.3905 8.38958 56.3071 8.35386C56.2238 8.31815 56.1369 8.30029 56.0464 8.30029C55.9512 8.30029 55.8631 8.31815 55.7821 8.35386C55.7012 8.38958 55.6298 8.4372 55.5679 8.49672C55.506 8.55625 55.4571 8.62767 55.4214 8.71101C55.3857 8.79434 55.3679 8.88363 55.3679 8.97886C55.3679 9.0741 55.3857 9.16339 55.4214 9.24672C55.4571 9.33005 55.506 9.40148 55.5679 9.46101C55.6298 9.52053 55.7012 9.56815 55.7821 9.60386C55.8631 9.63958 55.9512 9.65744 56.0464 9.65744ZM40.2577 13.4824C40.0958 13.6086 39.8529 13.6717 39.5291 13.6717C39.3005 13.6717 39.0862 13.6289 38.8862 13.5432C38.6862 13.4574 38.5124 13.3301 38.3648 13.161C38.2172 12.992 38.1005 12.7824 38.0148 12.5324C37.9291 12.2824 37.8862 11.9908 37.8862 11.6574V10.486C37.8862 10.1622 37.9327 9.87529 38.0255 9.62529C38.1184 9.37529 38.2469 9.16458 38.4112 8.99315C38.5755 8.82172 38.7719 8.69196 39.0005 8.60386C39.2291 8.51577 39.4815 8.47172 39.7577 8.47172C40.0434 8.47172 40.2981 8.51815 40.5219 8.61101C40.7458 8.70386 40.9362 8.83244 41.0934 8.99672C41.2505 9.16101 41.3696 9.35386 41.4505 9.57529C41.5315 9.79672 41.5719 10.0336 41.5719 10.286V10.3717H40.6291V10.286C40.6291 9.98601 40.5517 9.75863 40.3969 9.60386C40.2422 9.4491 40.0243 9.37172 39.7434 9.37172C39.4767 9.37172 39.2577 9.46101 39.0862 9.63958C38.9148 9.81815 38.8291 10.1241 38.8291 10.5574V11.6146C38.8291 12.386 39.1434 12.7717 39.7719 12.7717C40.0529 12.7717 40.266 12.6967 40.4112 12.5467C40.5565 12.3967 40.6291 12.1955 40.6291 11.9432H39.4291V11.0432H41.5719V13.5717H40.7148V13.0146H40.5862C40.5291 13.2003 40.4196 13.3562 40.2577 13.4824ZM44.4566 13.5932C44.2828 13.6455 44.0793 13.6717 43.8459 13.6717C43.5793 13.6717 43.3364 13.6289 43.1174 13.5431C42.8983 13.4574 42.709 13.3336 42.5495 13.1717C42.39 13.0098 42.2662 12.8122 42.1781 12.5789C42.09 12.3455 42.0459 12.0812 42.0459 11.786V11.7432C42.0459 11.4717 42.0924 11.2241 42.1852 11.0003C42.2781 10.7765 42.4054 10.586 42.5674 10.4289C42.7293 10.2717 42.9185 10.1491 43.1352 10.061C43.3519 9.97291 43.584 9.92886 43.8316 9.92886C44.1364 9.92886 44.3983 9.98244 44.6174 10.0896C44.8364 10.1967 45.0174 10.3324 45.1602 10.4967C45.3031 10.661 45.4078 10.842 45.4745 11.0396C45.5412 11.2372 45.5745 11.4289 45.5745 11.6146V12.0932H42.9745C42.9793 12.1979 43.0043 12.2943 43.0495 12.3824C43.0947 12.4705 43.1566 12.5467 43.2352 12.611C43.3138 12.6753 43.4043 12.7253 43.5066 12.761C43.609 12.7967 43.7174 12.8146 43.8316 12.8146C44.0554 12.8146 44.2269 12.7753 44.3459 12.6967C44.465 12.6182 44.5507 12.5241 44.6031 12.4146L45.3745 12.8432C45.3316 12.9336 45.2721 13.0277 45.1959 13.1253C45.1197 13.2229 45.0209 13.3122 44.8995 13.3931C44.7781 13.4741 44.6304 13.5408 44.4566 13.5932ZM44.6602 11.3217H42.9888C43.0316 11.1693 43.1245 11.0348 43.2674 10.9182C43.4102 10.8015 43.5959 10.7432 43.8245 10.7432C44.0531 10.7432 44.2424 10.7979 44.3924 10.9074C44.5424 11.017 44.6316 11.1551 44.6602 11.3217ZM49.2342 12.7146V13.5717H47.7342C47.5723 13.5717 47.4401 13.5193 47.3378 13.4146C47.2354 13.3098 47.1842 13.1765 47.1842 13.0146V10.886H46.1342V10.0289H47.1842V8.57172H48.0842V10.0289H49.3628V10.886H48.0842V12.5003C48.0842 12.6432 48.1485 12.7146 48.277 12.7146H49.2342ZM57.5322 12.7146V13.5717H54.4036V12.7146H55.6036V10.886H54.4893V10.0289H56.5036V12.7146H57.5322ZM61.3918 13.5717V12.7146H60.4347C60.3061 12.7146 60.2418 12.6432 60.2418 12.5003V10.886H61.5204V10.0289H60.2418V8.57172H59.3418V10.0289H58.2918V10.886H59.3418V13.0146C59.3418 13.1765 59.393 13.3098 59.4954 13.4146C59.5978 13.5193 59.7299 13.5717 59.8918 13.5717H61.3918ZM68.8219 13.5503C68.6005 13.6312 68.3684 13.6717 68.1255 13.6717C67.8827 13.6717 67.6505 13.6312 67.4291 13.5503C67.2077 13.4693 67.0112 13.3515 66.8398 13.1967C66.6684 13.042 66.5327 12.8515 66.4327 12.6253C66.3327 12.3991 66.2827 12.1384 66.2827 11.8432V11.7574C66.2827 11.467 66.3327 11.2086 66.4327 10.9824C66.5327 10.7562 66.6684 10.5646 66.8398 10.4074C67.0112 10.2503 67.2077 10.1312 67.4291 10.0503C67.6505 9.96934 67.8827 9.92886 68.1255 9.92886C68.3684 9.92886 68.6005 9.96934 68.8219 10.0503C69.0434 10.1312 69.2398 10.2503 69.4112 10.4074C69.5827 10.5646 69.7184 10.7562 69.8184 10.9824C69.9184 11.2086 69.9684 11.467 69.9684 11.7574V11.8432C69.9684 12.1384 69.9184 12.3991 69.8184 12.6253C69.7184 12.8515 69.5827 13.042 69.4112 13.1967C69.2398 13.3515 69.0434 13.4693 68.8219 13.5503ZM68.1255 12.8146C67.9969 12.8146 67.8755 12.7931 67.7612 12.7503C67.6469 12.7074 67.5469 12.6455 67.4612 12.5646C67.3755 12.4836 67.3077 12.3848 67.2577 12.2681C67.2077 12.1515 67.1827 12.0193 67.1827 11.8717V11.7289C67.1827 11.5812 67.2077 11.4491 67.2577 11.3324C67.3077 11.2158 67.3755 11.117 67.4612 11.036C67.5469 10.9551 67.6469 10.8932 67.7612 10.8503C67.8755 10.8074 67.9969 10.786 68.1255 10.786C68.2541 10.786 68.3755 10.8074 68.4898 10.8503C68.6041 10.8932 68.7041 10.9551 68.7898 11.036C68.8755 11.117 68.9434 11.2158 68.9934 11.3324C69.0434 11.4491 69.0684 11.5812 69.0684 11.7289V11.8717C69.0684 12.0193 69.0434 12.1515 68.9934 12.2681C68.9434 12.3848 68.8755 12.4836 68.7898 12.5646C68.7041 12.6455 68.6041 12.7074 68.4898 12.7503C68.3755 12.7931 68.2541 12.8146 68.1255 12.8146ZM71.4495 11.7289V13.5717H70.5495V10.0289H71.4495V10.5574H71.5781C71.659 10.3574 71.79 10.2027 71.9709 10.0932C72.1519 9.98363 72.3638 9.92886 72.6066 9.92886C72.7781 9.92886 72.9388 9.95625 73.0888 10.011C73.2388 10.0658 73.3709 10.1503 73.4852 10.2646C73.5995 10.3789 73.6888 10.5241 73.7531 10.7003C73.8174 10.8765 73.8495 11.086 73.8495 11.3289V13.5717H72.9495V11.5574C72.9495 11.3051 72.8888 11.1062 72.7674 10.961C72.6459 10.8158 72.4709 10.7431 72.2424 10.7431C71.9757 10.7431 71.7769 10.8324 71.6459 11.011C71.515 11.1896 71.4495 11.4289 71.4495 11.7289Z" fill="#495567"/>
<path fill-rule="evenodd" clip-rule="evenodd" d="M12.8233 10.1694C13.341 9.91976 13.9346 9.94657 14.4326 10.2464L24.3411 16.0164L21.5031 18.8677L12.8233 10.1694ZM11.8574 11.7296C11.8574 11.4641 11.9163 11.2062 12.0258 10.9744L20.7037 19.6708L12.0273 28.3884C11.9167 28.1614 11.8574 27.9073 11.8574 27.6407V11.7296ZM21.5043 20.4728L12.8385 29.1798C13.0684 29.2863 13.3131 29.3327 13.5574 29.3327C13.8591 29.3327 14.16 29.2606 14.4327 29.0967L24.343 23.318L21.5043 20.4728ZM28.1043 18.2076C28.1077 18.2095 28.1115 18.2118 28.1149 18.214C28.6265 18.5244 28.932 19.0674 28.932 19.6663C28.932 20.2651 28.6265 20.8081 28.1149 21.1189L25.355 22.7278L22.3033 19.6697L25.3531 16.6055L28.1043 18.2076Z" fill="#495567"/>
</svg>
